<?xml version="1.0" encoding="UTF-8" standalone="no"?>
<svg
   width="1000"
   height="300"
   viewBox="0 0 264.58333 79.375002"
   version="1.1"
   id="svg8"
   inkscape:version="1.1.1 (3bf5ae0d25, 2021-09-20)"
   sodipodi:docname="logo.svg"
   inkscape:export-filename="/home/danielbarter/RNMC/logo.png"
   inkscape:export-xdpi="96"
   inkscape:export-ydpi="96"
   xmlns:inkscape="http://www.inkscape.org/namespaces/inkscape"
   xmlns:sodipodi="http://sodipodi.sourceforge.net/DTD/sodipodi-0.dtd"
   xmlns="http://www.w3.org/2000/svg"
   xmlns:svg="http://www.w3.org/2000/svg"
   xmlns:rdf="http://www.w3.org/1999/02/22-rdf-syntax-ns#"
   xmlns:cc="http://creativecommons.org/ns#"
   xmlns:dc="http://purl.org/dc/elements/1.1/">
  <defs
     id="defs2">
    <marker
       style="overflow:visible"
       id="marker4231"
       refX="0"
       refY="0"
       orient="auto"
       inkscape:stockid="Arrow2Mend"
       inkscape:isstock="true">
      <path
         transform="scale(-0.6)"
         d="M 8.7185878,4.0337352 -2.2072895,0.01601326 8.7185884,-4.0017078 c -1.7454984,2.3720609 -1.7354408,5.6174519 -6e-7,8.035443 z"
         style="fill:#000000;fill-opacity:1;fill-rule:evenodd;stroke:#000000;stroke-width:0.625;stroke-linejoin:round;stroke-opacity:1"
         id="path4229" />
    </marker>
    <marker
       style="overflow:visible"
       id="marker4093"
       refX="0"
       refY="0"
       orient="auto"
       inkscape:stockid="Arrow2Mend"
       inkscape:isstock="true">
      <path
         transform="scale(-0.6)"
         d="M 8.7185878,4.0337352 -2.2072895,0.01601326 8.7185884,-4.0017078 c -1.7454984,2.3720609 -1.7354408,5.6174519 -6e-7,8.035443 z"
         style="fill:#000000;fill-opacity:1;fill-rule:evenodd;stroke:#000000;stroke-width:0.625;stroke-linejoin:round;stroke-opacity:1"
         id="path4091" />
    </marker>
    <marker
       style="overflow:visible"
       id="Arrow2Mend"
       refX="0"
       refY="0"
       orient="auto"
       inkscape:stockid="Arrow2Mend"
       inkscape:isstock="true">
      <path
         transform="scale(-0.6)"
         d="M 8.7185878,4.0337352 -2.2072895,0.01601326 8.7185884,-4.0017078 c -1.7454984,2.3720609 -1.7354408,5.6174519 -6e-7,8.035443 z"
         style="fill:#000000;fill-opacity:1;fill-rule:evenodd;stroke:#000000;stroke-width:0.625;stroke-linejoin:round;stroke-opacity:1"
         id="path874" />
    </marker>
    <marker
       style="overflow:visible"
       id="marker1711"
       refX="0"
       refY="0"
       orient="auto"
       inkscape:stockid="Arrow2Lend"
       inkscape:isstock="true">
      <path
         transform="matrix(-1.1,0,0,-1.1,-1.1,0)"
         d="M 8.7185878,4.0337352 -2.2072895,0.01601326 8.7185884,-4.0017078 c -1.7454984,2.3720609 -1.7354408,5.6174519 -6e-7,8.035443 z"
         style="fill:#000000;fill-opacity:1;fill-rule:evenodd;stroke:#000000;stroke-width:0.625;stroke-linejoin:round;stroke-opacity:1"
         id="path1709" />
    </marker>
    <marker
       style="overflow:visible"
       id="marker1701"
       refX="0"
       refY="0"
       orient="auto"
       inkscape:stockid="Arrow1Lend"
       inkscape:isstock="true">
      <path
         transform="matrix(-0.8,0,0,-0.8,-10,0)"
         style="fill:#000000;fill-opacity:1;fill-rule:evenodd;stroke:#000000;stroke-width:1pt;stroke-opacity:1"
         d="M 0,0 5,-5 -12.5,0 5,5 Z"
         id="path1699" />
    </marker>
    <marker
       style="overflow:visible"
       id="marker1573"
       refX="0"
       refY="0"
       orient="auto"
       inkscape:stockid="Arrow2Lend"
       inkscape:isstock="true">
      <path
         transform="matrix(-1.1,0,0,-1.1,-1.1,0)"
         d="M 8.7185878,4.0337352 -2.2072895,0.01601326 8.7185884,-4.0017078 c -1.7454984,2.3720609 -1.7354408,5.6174519 -6e-7,8.035443 z"
         style="fill:#000000;fill-opacity:1;fill-rule:evenodd;stroke:#000000;stroke-width:0.625;stroke-linejoin:round;stroke-opacity:1"
         id="path1571" />
    </marker>
    <marker
       style="overflow:visible"
       id="marker1563"
       refX="0"
       refY="0"
       orient="auto"
       inkscape:stockid="Arrow1Lend"
       inkscape:isstock="true">
      <path
         transform="matrix(-0.8,0,0,-0.8,-10,0)"
         style="fill:#000000;fill-opacity:1;fill-rule:evenodd;stroke:#000000;stroke-width:1pt;stroke-opacity:1"
         d="M 0,0 5,-5 -12.5,0 5,5 Z"
         id="path1561" />
    </marker>
    <marker
       style="overflow:visible"
       id="DotL"
       refX="0"
       refY="0"
       orient="auto"
       inkscape:stockid="DotL"
       inkscape:isstock="true">
      <path
         transform="matrix(0.8,0,0,0.8,5.92,0.8)"
         style="fill:#000000;fill-opacity:1;fill-rule:evenodd;stroke:#000000;stroke-width:1pt;stroke-opacity:1"
         d="m -2.5,-1 c 0,2.76 -2.24,5 -5,5 -2.76,0 -5,-2.24 -5,-5 0,-2.76 2.24,-5 5,-5 2.76,0 5,2.24 5,5 z"
         id="path908" />
    </marker>
    <marker
       style="overflow:visible"
       id="EmptyDiamondS"
       refX="0"
       refY="0"
       orient="auto"
       inkscape:stockid="EmptyDiamondS"
       inkscape:isstock="true">
      <path
         transform="scale(0.2)"
         style="fill:#ffffff;fill-rule:evenodd;stroke:#000000;stroke-width:1pt;stroke-opacity:1"
         d="M 0,-7.0710768 -7.0710894,0 0,7.0710589 7.0710462,0 Z"
         id="path959" />
    </marker>
    <clipPath
       clipPathUnits="userSpaceOnUse"
       id="clipPath16081">
      <path
         style="fill:none;stroke:#000000;stroke-width:0.264583px;stroke-linecap:butt;stroke-linejoin:miter;stroke-opacity:1"
         d="m 214.08811,33.545457 -5.88411,-10.583769 -10.66363,-1.885502 -15.24689,-2.059855 -4.59422,1.145814 -0.62067,6.666078 33.04015,12.727668"
         id="path16083" />
    </clipPath>
    <clipPath
       clipPathUnits="userSpaceOnUse"
       id="clipPath16620">
      <path
         style="fill:none;stroke:#000000;stroke-width:0.264583px;stroke-linecap:butt;stroke-linejoin:miter;stroke-opacity:1"
         d="m 217.54486,37.900073 -4.22933,5.676865 3.72768,7.793099 8.40855,3.523051 19.92933,2.422131 4.103,-0.864973 -0.39725,-7.687651 -11.64188,-9.169641 z"
         id="path16622" />
    </clipPath>
    <clipPath
       clipPathUnits="userSpaceOnUse"
       id="clipPath2566">
      <path
         style="fill:none;stroke:#000000;stroke-width:0.264583px;stroke-linecap:butt;stroke-linejoin:miter;stroke-opacity:1"
         d="m 182.30496,20.330232 14.59177,14.864781 5.44509,9.736021 -5.78597,4.886544 -12.46509,-4.591084 -6.55176,-12.438997 -1.37654,-9.760557 2.1178,-3.241687 z"
         id="path2568" />
    </clipPath>
    <clipPath
       clipPathUnits="userSpaceOnUse"
       id="clipPath2765">
      <path
         style="fill:none;stroke:#000000;stroke-width:0.264583px;stroke-linecap:butt;stroke-linejoin:miter;stroke-opacity:1"
         d="m 206.74446,48.045873 -4.57803,4.086301 4.48355,0.421262 4.47206,-3.145636 z"
         id="path2767" />
    </clipPath>
    <clipPath
       clipPathUnits="userSpaceOnUse"
       id="clipPath2884">
      <path
         style="fill:none;stroke:#000000;stroke-width:0.264583px;stroke-linecap:butt;stroke-linejoin:miter;stroke-opacity:1"
         d="m 216.66214,50.118256 -4.24603,4.659469 19.79987,4.118141 14.18825,-0.903078 2.0301,-2.537495 -1.15364,-1.959628 z"
         id="path2886" />
    </clipPath>
    <clipPath
       clipPathUnits="userSpaceOnUse"
       id="clipPath3049">
      <path
         style="fill:none;stroke:#000000;stroke-width:0.264583px;stroke-linecap:butt;stroke-linejoin:miter;stroke-opacity:1"
         d="m 200.9378,54.374034 -0.0684,3.334975 c 0,0 1.22611,1.032698 1.51578,0.98656 0.28966,-0.04614 5.99659,-1.278348 5.99659,-1.278348 l 4.79871,-3.987482 2.07988,-2.305045 2.80234,-3.464351 1.32107,-2.597295 0.23919,-1.164842 -2.36826,-3.177548 -2.26223,3.156323 -3.28376,4.26746 -1.30658,2.429253 -1.34091,1.530175 -3.21234,0.704554 c 0,0 -2.96826,0.652968 -3.34023,0.79194 -0.37198,0.138973 -1.57088,0.773671 -1.57088,0.773671 z"
         id="path3051" />
    </clipPath>
    <clipPath
       clipPathUnits="userSpaceOnUse"
       id="clipPath3283">
      <path
         style="fill:none;stroke:#000000;stroke-width:0.264583px;stroke-linecap:butt;stroke-linejoin:miter;stroke-opacity:1"
         d="m 218.59633,36.944866 3.03862,3.283715 23.73988,-6.347667 3.11203,-4.079853 1.13467,-6.50754 c 0,0 -5.61354,-2.995388 -6.44959,-2.842943 -0.83605,0.152446 -14.88577,2.738113 -16.30281,2.969919 -1.41704,0.231806 -12.28053,3.10317 -12.57804,4.109015 -0.29751,1.005845 4.30524,9.415354 4.30524,9.415354 z"
         id="path3285" />
    </clipPath>
  </defs>
  <sodipodi:namedview
     id="base"
     pagecolor="#ffffff"
     bordercolor="#666666"
     borderopacity="1.0"
     inkscape:pageopacity="0.0"
     inkscape:pageshadow="2"
     inkscape:zoom="2.8"
     inkscape:cx="497.85714"
     inkscape:cy="122.85714"
     inkscape:document-units="mm"
     inkscape:current-layer="layer1"
     inkscape:document-rotation="0"
     showgrid="false"
     units="px"
     showguides="true"
     inkscape:window-width="3436"
     inkscape:window-height="1386"
     inkscape:window-x="0"
     inkscape:window-y="0"
     inkscape:window-maximized="1"
     inkscape:guide-bbox="true"
     inkscape:pagecheckerboard="0"
     inkscape:snap-global="false"
     width="1000px">
    <sodipodi:guide
       position="320.5238,19.276786"
       orientation="1,0"
       id="guide4443" />
  </sodipodi:namedview>
  <metadata
     id="metadata5">
    <rdf:RDF>
      <cc:Work
         rdf:about="">
        <dc:format>image/svg+xml</dc:format>
        <dc:type
           rdf:resource="http://purl.org/dc/dcmitype/StillImage" />
      </cc:Work>
    </rdf:RDF>
  </metadata>
  <g
     inkscape:label="Layer 1"
     inkscape:groupmode="layer"
     id="layer1">
    <text
       xml:space="preserve"
       style="font-size:50.8px;line-height:1.25;font-family:'Source Code Pro';-inkscape-font-specification:'Source Code Pro';word-spacing:0px;stroke-width:0.264583"
       x="6.6969562"
       y="56.670929"
       id="text12"><tspan
         sodipodi:role="line"
         id="tspan10"
         x="6.6969562"
         y="56.670929"
         style="font-style:normal;font-variant:normal;font-weight:normal;font-stretch:normal;font-family:'Source Sans Pro';-inkscape-font-specification:'Source Sans Pro';stroke-width:0.264583">RNMC</tspan></text>
    <rect
       style="fill:none;stroke:#000000;stroke-width:1.5875;stroke-miterlimit:3.98571;stroke-dasharray:none"
       id="rect14"
       width="77.54908"
       height="43.104553"
       x="174.14603"
       y="17.227762"
       rx="4.511095"
       ry="6.9746571" />
    <path
       style="fill:none;stroke:#000000;stroke-width:2.11667;stroke-linecap:butt;stroke-linejoin:miter;stroke-miterlimit:4;stroke-dasharray:none;stroke-opacity:1"
       d="m 179.07841,21.228613 c 0.81538,36.088693 67.45841,34.961671 67.45841,34.961671"
       id="path1685"
       sodipodi:nodetypes="cc"
       clip-path="url(#clipPath2566)"
       transform="translate(1.1758293,0.24038597)" />
    <path
       style="fill:none;stroke:#2d89ef;stroke-width:2.11667;stroke-linecap:butt;stroke-linejoin:miter;stroke-miterlimit:4;stroke-dasharray:none;stroke-opacity:1"
       d="m 178.77773,56.050907 c 27.91818,0.104404 29.47988,-18.396153 35.2112,-18.589326 9.56549,-0.322403 1.47363,13.367132 31.96742,12.964661"
       id="path1075"
       sodipodi:nodetypes="csc" />
    <path
       style="fill:none;stroke:#00a300;stroke-width:2.11666667;stroke-linecap:butt;stroke-linejoin:miter;stroke-opacity:1;stroke-miterlimit:4;stroke-dasharray:none"
       d="m 202.10953,56.200203 c 22.92045,-5.44666 12.73717,-27.578739 30.07095,-27.034939 12.5895,0.394961 14.58393,-2.504085 14.58393,-2.504085"
       id="path1398"
       sodipodi:nodetypes="csc"
       clip-path="url(#clipPath3049)" />
    <path
       style="fill:none;stroke:#000000;stroke-width:2.11667;stroke-linecap:butt;stroke-linejoin:miter;stroke-miterlimit:4;stroke-dasharray:none;stroke-opacity:1"
       d="m 179.07841,21.228613 c 0.81538,36.088694 67.45841,34.961674 67.45841,34.961674"
       id="path2447"
       sodipodi:nodetypes="cc"
       clip-path="url(#clipPath2765)" />
    <path
       style="fill:none;stroke:#000000;stroke-width:2.11667;stroke-linecap:butt;stroke-linejoin:miter;stroke-miterlimit:4;stroke-dasharray:none;stroke-opacity:1"
       d="m 179.07841,21.228613 c 0.81538,36.088693 67.45841,34.961671 67.45841,34.961671"
       id="path2449"
       sodipodi:nodetypes="cc"
       clip-path="url(#clipPath2884)" />
    <path
       style="fill:none;stroke:#00a300;stroke-width:2.11667;stroke-linecap:butt;stroke-linejoin:miter;stroke-miterlimit:4;stroke-dasharray:none;stroke-opacity:1"
       d="m 202.10953,56.200199 c 22.92045,-5.44666 12.73717,-27.578735 30.07095,-27.034935 12.5895,0.394961 14.58393,-2.504085 14.58393,-2.504085"
       id="path2932"
       sodipodi:nodetypes="csc"
       clip-path="url(#clipPath3283)"
       transform="translate(0.73638916,-0.33848063)" />
  </g>
</svg>
